<svg width="44" height="42" viewBox="0 0 44 42" fill="none" xmlns="http://www.w3.org/2000/svg">
<rect width="43.3548" height="42" rx="10" fill="white"/>
<path d="M19.4863 17.3318H24.813L22.1497 13.6807L19.4863 17.3318Z" fill="#4776F0"/>
<path d="M21.9184 29.3832L25.0184 18.7598H18.8184L21.9184 29.3832Z" fill="#4776F0"/>
<path d="M29.5011 12.3335H23.1328L26.317 16.6987L29.5011 12.3335Z" fill="#4776F0"/>
<path d="M16.4807 17.3322L13.5307 13.2876L10.834 17.3322H16.4807Z" fill="#4776F0"/>
<path d="M26.9686 18.7598L23.252 31.4997L33.4245 18.7598H26.9686Z" fill="#4776F0"/>
<path d="M17.983 16.6987L21.1672 12.3335H14.7988L17.983 16.6987Z" fill="#4776F0"/>
<path d="M27.8203 17.3322H33.467L30.7703 13.2876L27.8203 17.3322Z" fill="#4776F0"/>
<path d="M17.3328 18.7598H10.877L21.0495 31.4997L17.3328 18.7598Z" fill="#4776F0"/>
</svg>
